<?xml version="1.0" standalone="no"?>
<!DOCTYPE svg PUBLIC "-//W3C//DTD SVG 20010904//EN"
 "http://www.w3.org/TR/2001/REC-SVG-20010904/DTD/svg10.dtd">
<svg version="1.0" xmlns="http://www.w3.org/2000/svg"
 width="148.000000pt" height="34.000000pt" viewBox="0 0 148.000000 34.000000"
 preserveAspectRatio="xMidYMid meet">

<g transform="translate(0.000000,34.000000) scale(0.100000,-0.100000)"
fill="#000000" stroke="none">
<path d="M150 310 c-18 -12 -2 -12 25 0 13 6 15 9 5 9 -8 0 -22 -4 -30 -9z"/>
<path d="M98 289 c-10 -5 -18 -15 -18 -22 0 -8 3 -9 8 -1 4 6 16 16 27 22 11
6 16 11 10 11 -5 0 -18 -4 -27 -10z"/>
<path d="M228 274 c31 -21 53 -68 54 -114 0 -48 -32 -93 -86 -120 l-41 -20 35
0 c109 0 171 144 97 223 -22 24 -58 47 -74 47 -4 0 3 -7 15 -16z"/>
<path d="M385 183 c-4 -60 -12 -114 -17 -120 -8 -10 0 -13 38 -13 42 0 46 2
30 13 -13 10 -20 32 -24 83 l-5 69 90 -82 c50 -46 93 -80 97 -76 3 3 6 52 6
108 0 65 4 105 12 113 9 9 2 12 -32 12 -36 -1 -41 -3 -27 -11 14 -8 17 -24 17
-82 l0 -72 -83 83 c-45 45 -85 82 -89 82 -3 0 -9 -48 -13 -107z"/>
<path d="M673 279 c14 -8 17 -25 17 -107 0 -63 -4 -102 -12 -110 -9 -9 0 -12
43 -12 41 1 50 3 37 11 -15 8 -18 25 -18 109 0 82 3 100 15 100 8 0 22 -11 30
-24 19 -28 7 -71 -22 -79 -10 -3 -5 -5 11 -4 64 4 87 96 30 117 -36 14 -155
13 -131 -1z"/>
<path d="M856 274 c-10 -26 -7 -38 7 -26 6 5 26 12 42 14 l30 3 3 -94 c2 -60
-1 -98 -9 -107 -10 -12 -3 -14 42 -14 42 1 50 3 37 11 -15 8 -18 25 -18 109
l0 100 33 -7 c17 -3 35 -11 39 -17 4 -6 8 1 8 17 l0 27 -104 0 c-85 0 -105 -3
-110 -16z"/>
<path d="M1103 283 c15 -4 17 -18 17 -107 0 -66 -4 -106 -12 -114 -9 -9 5 -12
64 -12 69 0 77 2 83 21 9 28 -2 37 -18 15 -8 -11 -23 -17 -38 -14 -21 3 -24 9
-27 51 -3 44 -2 47 22 47 14 0 30 -8 35 -17 9 -15 10 -13 11 12 0 29 -2 31
-35 27 -35 -4 -35 -4 -35 37 0 34 3 41 19 41 11 0 26 -7 34 -15 17 -16 27 -10
27 17 0 16 -9 18 -82 17 -46 -1 -75 -3 -65 -6z"/>
<path d="M1303 279 c14 -8 17 -25 17 -107 0 -63 -4 -102 -12 -110 -9 -9 6 -12
70 -12 81 0 82 0 82 26 0 23 -1 24 -16 10 -16 -17 -33 -20 -58 -10 -25 9 -23
189 2 203 13 8 3 10 -43 10 -46 0 -56 -2 -42 -10z"/>
<path d="M46 225 c-9 -26 -7 -32 5 -12 6 10 9 21 6 23 -2 3 -7 -2 -11 -11z"/>
<path d="M150 188 c0 -5 -5 -6 -10 -3 -6 4 -6 -3 1 -18 10 -23 39 -34 39 -15
0 5 4 7 8 4 4 -2 8 4 8 14 0 10 -4 16 -8 14 -4 -3 -8 -1 -8 4 0 5 -7 9 -15 9
-8 0 -15 -4 -15 -9z"/>
<path d="M28 143 c7 -3 16 -2 19 1 4 3 -2 6 -13 5 -11 0 -14 -3 -6 -6z"/>
<path d="M26 123 c5 -5 12 -12 16 -18 4 -6 8 -2 8 8 0 9 -7 17 -17 17 -9 0
-12 -3 -7 -7z"/>
</g>
</svg>
